<?xml version="1.0"?>
<svg xmlns="http://www.w3.org/2000/svg" xmlns:xlink="http://www.w3.org/1999/xlink" version="1.1" id="Layer_1" x="0px" y="0px" viewBox="0 0 512 512" style="enable-background:new 0 0 512 512;" xml:space="preserve" width="512px" height="512px" class=""><g><g>
	<g>
		<path d="M399.61,237.268V143.61C399.61,64.423,335.186,0,256,0S112.39,64.423,112.39,143.61v93.659H74.927V512h362.146V237.268    H399.61z M274.732,408.876v34.441h-37.463v-34.441c-21.801-7.732-37.463-28.553-37.463-52.973    c0-30.986,25.209-56.195,56.195-56.195s56.195,25.209,56.195,56.195C312.195,380.322,296.534,401.145,274.732,408.876z     M362.146,237.268H149.854V143.61c0-58.529,47.617-106.146,106.146-106.146S362.146,85.081,362.146,143.61V237.268z" data-original="#000000" class="active-path" data-old_color="#000000" fill="#95A7AF"/>
	</g>
</g><g>
	<g>
		<path d="M256,337.171c-10.329,0-18.732,8.403-18.732,18.732c0,10.329,8.403,18.732,18.732,18.732    c10.329,0,18.732-8.403,18.732-18.732C274.732,345.574,266.329,337.171,256,337.171z" data-original="#000000" class="active-path" data-old_color="#000000" fill="#95A7AF"/>
	</g>
</g></g> </svg>
